<mxfile host="app.diagrams.net" agent="Mozilla/5.0 (Windows NT 10.0; Win64; x64) AppleWebKit/537.36 (KHTML, like Gecko) Chrome/139.0.0.0 Safari/537.36" version="28.2.3">
  <diagram name="第 1 页" id="0vagwWvC95xhxGTjdPrk">
    <mxGraphModel dx="1426" dy="743" grid="1" gridSize="10" guides="1" tooltips="1" connect="1" arrows="1" fold="1" page="1" pageScale="1" pageWidth="827" pageHeight="1169" math="0" shadow="0">
      <root>
        <mxCell id="0" />
        <mxCell id="1" parent="0" />
        <mxCell id="u8mfOglBeeZVYkt3J2dx-95" value="" style="rounded=1;whiteSpace=wrap;html=1;fillColor=light-dark(#ededed, #ededed);strokeColor=light-dark(#ededed, #ededed);align=right;" parent="1" vertex="1">
          <mxGeometry x="20" y="30" width="1100" height="330" as="geometry" />
        </mxCell>
        <mxCell id="u8mfOglBeeZVYkt3J2dx-96" value="" style="sketch=0;outlineConnect=0;fontColor=#232F3E;gradientColor=none;fillColor=#232F3D;strokeColor=none;dashed=0;verticalLabelPosition=bottom;verticalAlign=top;align=center;html=1;fontSize=12;fontStyle=0;aspect=fixed;pointerEvents=1;shape=mxgraph.aws4.json_script;" parent="1" vertex="1">
          <mxGeometry x="220" y="50" width="29.23" height="40" as="geometry" />
        </mxCell>
        <mxCell id="u8mfOglBeeZVYkt3J2dx-97" value="&lt;font style=&quot;font-size: 14px;&quot;&gt;Json of kiali API&lt;/font&gt;" style="text;html=1;align=center;verticalAlign=middle;whiteSpace=wrap;rounded=0;" parent="1" vertex="1">
          <mxGeometry x="249.23000000000002" y="60" width="60" height="30" as="geometry" />
        </mxCell>
        <mxCell id="u8mfOglBeeZVYkt3J2dx-99" value="" style="endArrow=classic;html=1;rounded=0;exitX=1;exitY=0.5;exitDx=0;exitDy=0;strokeWidth=3;strokeColor=light-dark(#44546a, #ededed);" parent="1" source="u8mfOglBeeZVYkt3J2dx-112" target="u8mfOglBeeZVYkt3J2dx-96" edge="1">
          <mxGeometry width="50" height="50" relative="1" as="geometry">
            <mxPoint x="170" y="70" as="sourcePoint" />
            <mxPoint x="170" y="240" as="targetPoint" />
          </mxGeometry>
        </mxCell>
        <mxCell id="u8mfOglBeeZVYkt3J2dx-100" value="&lt;b&gt;&lt;font style=&quot;font-size: 13px; color: rgb(0, 0, 255);&quot;&gt;&amp;nbsp; &amp;nbsp; Conductor&lt;/font&gt;&lt;/b&gt;&lt;div&gt;&lt;b&gt;&lt;font style=&quot;font-size: 13px; color: rgb(0, 0, 255);&quot;&gt;&amp;nbsp; &amp;nbsp; &amp;nbsp; &amp;nbsp;Engine&lt;/font&gt;&lt;/b&gt;&lt;/div&gt;" style="rounded=1;whiteSpace=wrap;html=1;align=left;verticalAlign=top;fillColor=light-dark(#ffffff, #ededed);strokeColor=light-dark(#000000,#EDEDED);dashed=1;dashPattern=8 8;" parent="1" vertex="1">
          <mxGeometry x="220" y="120" width="210" height="231.5" as="geometry" />
        </mxCell>
        <mxCell id="u8mfOglBeeZVYkt3J2dx-101" value="&lt;b&gt;&lt;font style=&quot;font-size: 13px;&quot;&gt;&amp;nbsp; &amp;nbsp; &amp;nbsp; Data Plane&lt;/font&gt;&lt;/b&gt;" style="rounded=1;whiteSpace=wrap;html=1;align=left;verticalAlign=top;" parent="1" vertex="1">
          <mxGeometry x="630" y="72.88" width="320" height="266.81" as="geometry" />
        </mxCell>
        <mxCell id="u8mfOglBeeZVYkt3J2dx-102" value="&lt;span style=&quot;color: rgba(0, 0, 0, 0.9); font-family: -apple-system, BlinkMacSystemFont, &amp;quot;Segoe UI&amp;quot;, system-ui, -apple-system, &amp;quot;Segoe UI&amp;quot;, Roboto, Ubuntu, Cantarell, &amp;quot;Noto Sans&amp;quot;, sans-serif, Arial, &amp;quot;PingFang SC&amp;quot;, &amp;quot;Source Han Sans SC&amp;quot;, &amp;quot;Microsoft YaHei UI&amp;quot;, &amp;quot;Microsoft YaHei&amp;quot;, &amp;quot;Noto Sans CJK SC&amp;quot;, sans-serif; text-align: start; white-space-collapse: preserve;&quot;&gt;&lt;font&gt;&lt;b style=&quot;&quot;&gt;Envoy Filter&lt;/b&gt;&lt;/font&gt;&lt;/span&gt;" style="text;html=1;align=center;verticalAlign=middle;whiteSpace=wrap;rounded=0;container=0;labelBackgroundColor=light-dark(#ededed, #ededed);" parent="1" vertex="1">
          <mxGeometry x="984.5" y="208.69" width="75.5" height="24" as="geometry" />
        </mxCell>
        <mxCell id="u8mfOglBeeZVYkt3J2dx-103" value="" style="endArrow=classic;html=1;rounded=0;dashed=1;jumpSize=10;strokeWidth=0.5;sourcePerimeterSpacing=10;" parent="1" edge="1">
          <mxGeometry width="50" height="50" relative="1" as="geometry">
            <mxPoint x="964" y="280.5" as="sourcePoint" />
            <mxPoint x="980" y="280.5" as="targetPoint" />
          </mxGeometry>
        </mxCell>
        <mxCell id="u8mfOglBeeZVYkt3J2dx-104" value="&lt;span style=&quot;color: rgba(0, 0, 0, 0.9); font-family: -apple-system, BlinkMacSystemFont, &amp;quot;Segoe UI&amp;quot;, system-ui, -apple-system, &amp;quot;Segoe UI&amp;quot;, Roboto, Ubuntu, Cantarell, &amp;quot;Noto Sans&amp;quot;, sans-serif, Arial, &amp;quot;PingFang SC&amp;quot;, &amp;quot;Source Han Sans SC&amp;quot;, &amp;quot;Microsoft YaHei UI&amp;quot;, &amp;quot;Microsoft YaHei&amp;quot;, &amp;quot;Noto Sans CJK SC&amp;quot;, sans-serif; text-align: start; white-space-collapse: preserve;&quot;&gt;&lt;font&gt;&lt;b style=&quot;&quot;&gt;virtual traffic &lt;/b&gt;&lt;/font&gt;&lt;/span&gt;" style="text;html=1;align=center;verticalAlign=middle;whiteSpace=wrap;rounded=0;container=0;labelBackgroundColor=light-dark(#ededed, #ededed);" parent="1" vertex="1">
          <mxGeometry x="983.5" y="266.5" width="76.5" height="24" as="geometry" />
        </mxCell>
        <mxCell id="u8mfOglBeeZVYkt3J2dx-105" value="" style="endArrow=classic;html=1;rounded=0;jumpSize=10;strokeWidth=0.5;" parent="1" edge="1">
          <mxGeometry width="50" height="50" relative="1" as="geometry">
            <mxPoint x="964" y="260.5" as="sourcePoint" />
            <mxPoint x="980" y="260.5" as="targetPoint" />
          </mxGeometry>
        </mxCell>
        <mxCell id="u8mfOglBeeZVYkt3J2dx-106" value="&lt;span style=&quot;color: rgba(0, 0, 0, 0.9); font-family: -apple-system, BlinkMacSystemFont, &amp;quot;Segoe UI&amp;quot;, system-ui, -apple-system, &amp;quot;Segoe UI&amp;quot;, Roboto, Ubuntu, Cantarell, &amp;quot;Noto Sans&amp;quot;, sans-serif, Arial, &amp;quot;PingFang SC&amp;quot;, &amp;quot;Source Han Sans SC&amp;quot;, &amp;quot;Microsoft YaHei UI&amp;quot;, &amp;quot;Microsoft YaHei&amp;quot;, &amp;quot;Noto Sans CJK SC&amp;quot;, sans-serif; text-align: start; white-space-collapse: preserve;&quot;&gt;&lt;font&gt;&lt;b style=&quot;&quot;&gt;real traffic &lt;/b&gt;&lt;/font&gt;&lt;/span&gt;" style="text;html=1;align=center;verticalAlign=middle;whiteSpace=wrap;rounded=0;container=0;labelBackgroundColor=light-dark(#ededed, #ededed);" parent="1" vertex="1">
          <mxGeometry x="980.5" y="246.5" width="69" height="24" as="geometry" />
        </mxCell>
        <mxCell id="u8mfOglBeeZVYkt3J2dx-107" value="" style="rounded=1;whiteSpace=wrap;html=1;fillColor=light-dark(#b4c7e7, #ededed);container=0;" parent="1" vertex="1">
          <mxGeometry x="960" y="214.5" width="17" height="12" as="geometry" />
        </mxCell>
        <mxCell id="u8mfOglBeeZVYkt3J2dx-108" value="" style="rounded=1;whiteSpace=wrap;html=1;fillColor=light-dark(#d0cfcf, #ededed);container=0;" parent="1" vertex="1">
          <mxGeometry x="960" y="234.5" width="17" height="12" as="geometry" />
        </mxCell>
        <mxCell id="u8mfOglBeeZVYkt3J2dx-109" value="&lt;span style=&quot;color: rgba(0, 0, 0, 0.9); font-family: -apple-system, BlinkMacSystemFont, &amp;quot;Segoe UI&amp;quot;, system-ui, -apple-system, &amp;quot;Segoe UI&amp;quot;, Roboto, Ubuntu, Cantarell, &amp;quot;Noto Sans&amp;quot;, sans-serif, Arial, &amp;quot;PingFang SC&amp;quot;, &amp;quot;Source Han Sans SC&amp;quot;, &amp;quot;Microsoft YaHei UI&amp;quot;, &amp;quot;Microsoft YaHei&amp;quot;, &amp;quot;Noto Sans CJK SC&amp;quot;, sans-serif; text-align: start; white-space-collapse: preserve;&quot;&gt;&lt;font&gt;&lt;b style=&quot;&quot;&gt;Pod&lt;/b&gt;&lt;/font&gt;&lt;/span&gt;" style="text;html=1;align=center;verticalAlign=middle;whiteSpace=wrap;rounded=0;container=0;labelBackgroundColor=light-dark(#ededed, #ededed);" parent="1" vertex="1">
          <mxGeometry x="984.5" y="228.69000000000005" width="54" height="24" as="geometry" />
        </mxCell>
        <mxCell id="u8mfOglBeeZVYkt3J2dx-110" value="" style="verticalLabelPosition=bottom;html=1;verticalAlign=top;align=center;shape=mxgraph.azure.file_2;pointerEvents=1;fillStyle=auto;" parent="1" vertex="1">
          <mxGeometry x="450" y="248" width="27" height="32" as="geometry" />
        </mxCell>
        <mxCell id="u8mfOglBeeZVYkt3J2dx-111" value="&lt;font style=&quot;font-size: 14px;&quot;&gt;&lt;span style=&quot;text-align: left;&quot;&gt;Obfuscation&amp;nbsp;&lt;/span&gt;&lt;span style=&quot;text-align: left;&quot;&gt;S&lt;/span&gt;trategy&lt;/font&gt;&lt;div&gt;&lt;font style=&quot;font-size: 14px;&quot;&gt;Generator&lt;/font&gt;&lt;/div&gt;" style="rounded=1;whiteSpace=wrap;html=1;" parent="1" vertex="1">
          <mxGeometry x="273.85" y="225.5" width="140.77" height="38" as="geometry" />
        </mxCell>
        <mxCell id="u8mfOglBeeZVYkt3J2dx-112" value="&lt;font style=&quot;font-size: 15px;&quot;&gt;kiali&lt;/font&gt;" style="rounded=1;whiteSpace=wrap;html=1;" parent="1" vertex="1">
          <mxGeometry x="50" y="50" width="120" height="37" as="geometry" />
        </mxCell>
        <mxCell id="u8mfOglBeeZVYkt3J2dx-113" value="&lt;font style=&quot;font-size: 15px;&quot;&gt;Prometheus&lt;/font&gt;" style="rounded=1;whiteSpace=wrap;html=1;" parent="1" vertex="1">
          <mxGeometry x="50" y="136" width="120" height="34" as="geometry" />
        </mxCell>
        <mxCell id="u8mfOglBeeZVYkt3J2dx-114" value="" style="endArrow=classic;html=1;rounded=0;entryX=0.5;entryY=1;entryDx=0;entryDy=0;exitX=0.5;exitY=0;exitDx=0;exitDy=0;" parent="1" source="u8mfOglBeeZVYkt3J2dx-113" target="u8mfOglBeeZVYkt3J2dx-112" edge="1">
          <mxGeometry width="50" height="50" relative="1" as="geometry">
            <mxPoint x="70" y="300" as="sourcePoint" />
            <mxPoint x="120" y="250" as="targetPoint" />
          </mxGeometry>
        </mxCell>
        <mxCell id="u8mfOglBeeZVYkt3J2dx-115" value="&lt;font style=&quot;font-size: 14px;&quot;&gt;Critical Path&lt;/font&gt;&lt;div&gt;&lt;font style=&quot;font-size: 14px;&quot;&gt;Analyzer&lt;/font&gt;&lt;/div&gt;" style="rounded=1;whiteSpace=wrap;html=1;" parent="1" vertex="1">
          <mxGeometry x="299.23" y="145.69" width="90" height="39" as="geometry" />
        </mxCell>
        <mxCell id="u8mfOglBeeZVYkt3J2dx-116" value="&lt;font style=&quot;font-size: 14px;&quot;&gt;&lt;span style=&quot;text-align: left;&quot;&gt;&amp;nbsp;Obfuscation Agent&lt;/span&gt;&lt;span style=&quot;text-align: left;&quot;&gt;&amp;nbsp;Generator&lt;/span&gt;&lt;/font&gt;" style="rounded=1;whiteSpace=wrap;html=1;" parent="1" vertex="1">
          <mxGeometry x="289.23" y="298.69" width="110" height="41" as="geometry" />
        </mxCell>
        <mxCell id="u8mfOglBeeZVYkt3J2dx-117" value="&lt;font style=&quot;font-size: 14px;&quot;&gt;Control Plane of Istio/Kubernetes&lt;/font&gt;" style="rounded=0;whiteSpace=wrap;html=1;" parent="1" vertex="1">
          <mxGeometry x="466.08" y="145.69" width="122.62" height="54.19" as="geometry" />
        </mxCell>
        <mxCell id="u8mfOglBeeZVYkt3J2dx-118" value="" style="endArrow=classic;html=1;rounded=0;exitX=1;exitY=0.5;exitDx=0;exitDy=0;entryX=0.5;entryY=0;entryDx=0;entryDy=0;strokeWidth=3;strokeColor=light-dark(#44546a, #ededed);" parent="1" source="u8mfOglBeeZVYkt3J2dx-97" target="u8mfOglBeeZVYkt3J2dx-115" edge="1">
          <mxGeometry width="50" height="50" relative="1" as="geometry">
            <mxPoint x="260" y="441.5" as="sourcePoint" />
            <mxPoint x="310" y="391.5" as="targetPoint" />
            <Array as="points">
              <mxPoint x="344" y="74.5" />
            </Array>
          </mxGeometry>
        </mxCell>
        <mxCell id="u8mfOglBeeZVYkt3J2dx-119" value="&lt;font style=&quot;font-size: 14px;&quot;&gt;OA &amp;amp; Envoyfilter config&amp;nbsp;&lt;/font&gt;" style="text;html=1;align=center;verticalAlign=middle;whiteSpace=wrap;rounded=0;" parent="1" vertex="1">
          <mxGeometry x="478.5" y="248" width="97.77" height="52" as="geometry" />
        </mxCell>
        <mxCell id="u8mfOglBeeZVYkt3J2dx-120" value="" style="endArrow=classic;html=1;rounded=0;exitX=0.5;exitY=1;exitDx=0;exitDy=0;entryX=0.5;entryY=0;entryDx=0;entryDy=0;strokeWidth=3;strokeColor=light-dark(#44546a, #ededed);" parent="1" source="u8mfOglBeeZVYkt3J2dx-111" target="u8mfOglBeeZVYkt3J2dx-116" edge="1">
          <mxGeometry width="50" height="50" relative="1" as="geometry">
            <mxPoint x="90" y="421.5" as="sourcePoint" />
            <mxPoint x="140" y="371.5" as="targetPoint" />
          </mxGeometry>
        </mxCell>
        <mxCell id="u8mfOglBeeZVYkt3J2dx-121" value="" style="endArrow=classic;html=1;rounded=0;exitX=0.5;exitY=1;exitDx=0;exitDy=0;entryX=0.5;entryY=0;entryDx=0;entryDy=0;strokeWidth=3;strokeColor=light-dark(#44546a, #ededed);" parent="1" source="u8mfOglBeeZVYkt3J2dx-115" target="u8mfOglBeeZVYkt3J2dx-111" edge="1">
          <mxGeometry width="50" height="50" relative="1" as="geometry">
            <mxPoint x="260" y="421.5" as="sourcePoint" />
            <mxPoint x="310" y="371.5" as="targetPoint" />
            <Array as="points" />
          </mxGeometry>
        </mxCell>
        <mxCell id="u8mfOglBeeZVYkt3J2dx-122" value="Critical Path" style="text;html=1;align=center;verticalAlign=middle;whiteSpace=wrap;rounded=0;" parent="1" vertex="1">
          <mxGeometry x="354.62" y="189.69" width="60" height="30" as="geometry" />
        </mxCell>
        <mxCell id="u8mfOglBeeZVYkt3J2dx-123" value="" style="endArrow=classic;html=1;rounded=0;exitX=1;exitY=0.5;exitDx=0;exitDy=0;entryX=0.5;entryY=1;entryDx=0;entryDy=0;strokeWidth=3;strokeColor=light-dark(#44546a, #ededed);" parent="1" source="u8mfOglBeeZVYkt3J2dx-116" target="u8mfOglBeeZVYkt3J2dx-119" edge="1">
          <mxGeometry width="50" height="50" relative="1" as="geometry">
            <mxPoint x="545" y="442" as="sourcePoint" />
            <mxPoint x="595" y="402" as="targetPoint" />
            <Array as="points">
              <mxPoint x="527" y="320" />
            </Array>
          </mxGeometry>
        </mxCell>
        <mxCell id="u8mfOglBeeZVYkt3J2dx-124" value="" style="endArrow=classic;html=1;rounded=0;exitX=0.5;exitY=0;exitDx=0;exitDy=0;strokeWidth=3;strokeColor=light-dark(#44546a, #ededed);" parent="1" source="u8mfOglBeeZVYkt3J2dx-119" target="u8mfOglBeeZVYkt3J2dx-117" edge="1">
          <mxGeometry width="50" height="50" relative="1" as="geometry">
            <mxPoint x="548.5" y="408" as="sourcePoint" />
            <mxPoint x="598.5" y="358" as="targetPoint" />
          </mxGeometry>
        </mxCell>
        <mxCell id="u8mfOglBeeZVYkt3J2dx-125" value="" style="group" parent="1" vertex="1" connectable="0">
          <mxGeometry x="640" y="229.69" width="100" height="100.31" as="geometry" />
        </mxCell>
        <mxCell id="u8mfOglBeeZVYkt3J2dx-126" value="" style="rounded=0;whiteSpace=wrap;html=1;align=center;verticalAlign=top;container=0;dashed=1;dashPattern=8 8;" parent="u8mfOglBeeZVYkt3J2dx-125" vertex="1">
          <mxGeometry x="8.330000000000041" y="22.29111111111111" width="83.33" height="78.01888888888888" as="geometry" />
        </mxCell>
        <mxCell id="u8mfOglBeeZVYkt3J2dx-127" value="&lt;font style=&quot;color: rgb(0, 0, 255);&quot;&gt;&lt;b style=&quot;&quot;&gt;Obfuscation&lt;/b&gt;&lt;/font&gt;&lt;div&gt;&lt;font style=&quot;color: rgb(0, 0, 255);&quot;&gt;&lt;b style=&quot;&quot;&gt;Agent&lt;/b&gt;&lt;/font&gt;&lt;/div&gt;" style="text;html=1;align=center;verticalAlign=middle;whiteSpace=wrap;rounded=0;container=0;" parent="u8mfOglBeeZVYkt3J2dx-125" vertex="1">
          <mxGeometry y="10.31" width="100" height="60.186000000000014" as="geometry" />
        </mxCell>
        <mxCell id="u8mfOglBeeZVYkt3J2dx-128" value="" style="rounded=1;whiteSpace=wrap;html=1;fillColor=light-dark(#b4c7e7, #ededed);container=0;" parent="u8mfOglBeeZVYkt3J2dx-125" vertex="1">
          <mxGeometry x="11.66" y="60.19" width="76.67" height="15.2" as="geometry" />
        </mxCell>
        <mxCell id="u8mfOglBeeZVYkt3J2dx-129" value="" style="rounded=1;whiteSpace=wrap;html=1;fillColor=#D0CFCF;container=0;" parent="u8mfOglBeeZVYkt3J2dx-125" vertex="1">
          <mxGeometry x="11.67" y="80" width="33.33" height="12.28" as="geometry" />
        </mxCell>
        <mxCell id="u8mfOglBeeZVYkt3J2dx-130" value="" style="rounded=1;whiteSpace=wrap;html=1;fillColor=#D0CFCF;container=0;" parent="u8mfOglBeeZVYkt3J2dx-125" vertex="1">
          <mxGeometry x="55" y="80" width="33.33" height="12.28" as="geometry" />
        </mxCell>
        <mxCell id="u8mfOglBeeZVYkt3J2dx-131" value="" style="group" parent="1" vertex="1" connectable="0">
          <mxGeometry x="630" y="119.69" width="70" height="70" as="geometry" />
        </mxCell>
        <mxCell id="u8mfOglBeeZVYkt3J2dx-132" value="" style="rounded=0;whiteSpace=wrap;html=1;align=center;verticalAlign=top;container=0;" parent="u8mfOglBeeZVYkt3J2dx-131" vertex="1">
          <mxGeometry x="5.83100000000003" y="15.555555555555557" width="58.331" height="54.44444444444444" as="geometry" />
        </mxCell>
        <mxCell id="u8mfOglBeeZVYkt3J2dx-133" value="&lt;font style=&quot;font-size: 11px;&quot;&gt;&lt;b style=&quot;&quot;&gt;Service&lt;/b&gt;&lt;/font&gt;" style="text;html=1;align=center;verticalAlign=middle;whiteSpace=wrap;rounded=0;container=0;" parent="u8mfOglBeeZVYkt3J2dx-131" vertex="1">
          <mxGeometry width="70" height="42.00000000000001" as="geometry" />
        </mxCell>
        <mxCell id="u8mfOglBeeZVYkt3J2dx-134" value="" style="rounded=1;whiteSpace=wrap;html=1;fillColor=light-dark(#b4c7e7, #ededed);container=0;" parent="u8mfOglBeeZVYkt3J2dx-131" vertex="1">
          <mxGeometry x="8.16666666666672" y="28.699999999999978" width="53.66666666666667" height="16.799999999999997" as="geometry" />
        </mxCell>
        <mxCell id="u8mfOglBeeZVYkt3J2dx-135" value="" style="rounded=1;whiteSpace=wrap;html=1;fillColor=#D0CFCF;container=0;" parent="u8mfOglBeeZVYkt3J2dx-131" vertex="1">
          <mxGeometry x="8.16666666666672" y="47.59440000000002" width="23.333333333333336" height="16.799999999999997" as="geometry" />
        </mxCell>
        <mxCell id="u8mfOglBeeZVYkt3J2dx-136" value="" style="rounded=1;whiteSpace=wrap;html=1;fillColor=#D0CFCF;container=0;" parent="u8mfOglBeeZVYkt3J2dx-131" vertex="1">
          <mxGeometry x="38.50000000000008" y="47.59440000000002" width="23.333333333333336" height="16.799999999999997" as="geometry" />
        </mxCell>
        <mxCell id="u8mfOglBeeZVYkt3J2dx-137" value="" style="group" parent="1" vertex="1" connectable="0">
          <mxGeometry x="760" y="69.69" width="70" height="70" as="geometry" />
        </mxCell>
        <mxCell id="u8mfOglBeeZVYkt3J2dx-138" value="" style="rounded=0;whiteSpace=wrap;html=1;align=center;verticalAlign=top;container=0;" parent="u8mfOglBeeZVYkt3J2dx-137" vertex="1">
          <mxGeometry x="5.83100000000003" y="15.555555555555557" width="58.331" height="54.44444444444444" as="geometry" />
        </mxCell>
        <mxCell id="u8mfOglBeeZVYkt3J2dx-139" value="&lt;font style=&quot;font-size: 11px;&quot;&gt;&lt;b style=&quot;&quot;&gt;Service&lt;/b&gt;&lt;/font&gt;" style="text;html=1;align=center;verticalAlign=middle;whiteSpace=wrap;rounded=0;container=0;" parent="u8mfOglBeeZVYkt3J2dx-137" vertex="1">
          <mxGeometry width="70" height="42.00000000000001" as="geometry" />
        </mxCell>
        <mxCell id="u8mfOglBeeZVYkt3J2dx-140" value="" style="rounded=1;whiteSpace=wrap;html=1;fillColor=light-dark(#b4c7e7, #ededed);container=0;" parent="u8mfOglBeeZVYkt3J2dx-137" vertex="1">
          <mxGeometry x="8.16666666666672" y="28.699999999999978" width="53.66666666666667" height="16.799999999999997" as="geometry" />
        </mxCell>
        <mxCell id="u8mfOglBeeZVYkt3J2dx-141" value="" style="rounded=1;whiteSpace=wrap;html=1;fillColor=#D0CFCF;container=0;" parent="u8mfOglBeeZVYkt3J2dx-137" vertex="1">
          <mxGeometry x="8.16666666666672" y="47.59440000000002" width="23.333333333333336" height="16.799999999999997" as="geometry" />
        </mxCell>
        <mxCell id="u8mfOglBeeZVYkt3J2dx-142" value="" style="rounded=1;whiteSpace=wrap;html=1;fillColor=#D0CFCF;container=0;" parent="u8mfOglBeeZVYkt3J2dx-137" vertex="1">
          <mxGeometry x="38.50000000000008" y="47.59440000000002" width="23.333333333333336" height="16.799999999999997" as="geometry" />
        </mxCell>
        <mxCell id="u8mfOglBeeZVYkt3J2dx-143" value="" style="group" parent="1" vertex="1" connectable="0">
          <mxGeometry x="750" y="159.69" width="70" height="70" as="geometry" />
        </mxCell>
        <mxCell id="u8mfOglBeeZVYkt3J2dx-144" value="" style="rounded=0;whiteSpace=wrap;html=1;align=center;verticalAlign=top;container=0;" parent="u8mfOglBeeZVYkt3J2dx-143" vertex="1">
          <mxGeometry x="5.83100000000003" y="15.555555555555557" width="58.331" height="54.44444444444444" as="geometry" />
        </mxCell>
        <mxCell id="u8mfOglBeeZVYkt3J2dx-145" value="&lt;font style=&quot;font-size: 11px;&quot;&gt;&lt;b style=&quot;&quot;&gt;Service&lt;/b&gt;&lt;/font&gt;" style="text;html=1;align=center;verticalAlign=middle;whiteSpace=wrap;rounded=0;container=0;" parent="u8mfOglBeeZVYkt3J2dx-143" vertex="1">
          <mxGeometry width="70" height="42.00000000000001" as="geometry" />
        </mxCell>
        <mxCell id="u8mfOglBeeZVYkt3J2dx-146" value="" style="rounded=1;whiteSpace=wrap;html=1;fillColor=light-dark(#b4c7e7, #ededed);container=0;" parent="u8mfOglBeeZVYkt3J2dx-143" vertex="1">
          <mxGeometry x="8.16666666666672" y="28.699999999999978" width="53.66666666666667" height="16.799999999999997" as="geometry" />
        </mxCell>
        <mxCell id="u8mfOglBeeZVYkt3J2dx-147" value="" style="rounded=1;whiteSpace=wrap;html=1;fillColor=#D0CFCF;container=0;" parent="u8mfOglBeeZVYkt3J2dx-143" vertex="1">
          <mxGeometry x="8.16666666666672" y="47.59440000000002" width="23.333333333333336" height="16.799999999999997" as="geometry" />
        </mxCell>
        <mxCell id="u8mfOglBeeZVYkt3J2dx-148" value="" style="rounded=1;whiteSpace=wrap;html=1;fillColor=#D0CFCF;container=0;" parent="u8mfOglBeeZVYkt3J2dx-143" vertex="1">
          <mxGeometry x="38.50000000000008" y="47.59440000000002" width="23.333333333333336" height="16.799999999999997" as="geometry" />
        </mxCell>
        <mxCell id="u8mfOglBeeZVYkt3J2dx-149" value="" style="group" parent="1" vertex="1" connectable="0">
          <mxGeometry x="880" y="119.69" width="70" height="70" as="geometry" />
        </mxCell>
        <mxCell id="u8mfOglBeeZVYkt3J2dx-150" value="" style="rounded=0;whiteSpace=wrap;html=1;align=center;verticalAlign=top;container=0;" parent="u8mfOglBeeZVYkt3J2dx-149" vertex="1">
          <mxGeometry x="5.83100000000003" y="15.555555555555557" width="58.331" height="54.44444444444444" as="geometry" />
        </mxCell>
        <mxCell id="u8mfOglBeeZVYkt3J2dx-151" value="&lt;font style=&quot;font-size: 11px;&quot;&gt;&lt;b style=&quot;&quot;&gt;Service&lt;/b&gt;&lt;/font&gt;" style="text;html=1;align=center;verticalAlign=middle;whiteSpace=wrap;rounded=0;container=0;" parent="u8mfOglBeeZVYkt3J2dx-149" vertex="1">
          <mxGeometry width="70" height="42.00000000000001" as="geometry" />
        </mxCell>
        <mxCell id="u8mfOglBeeZVYkt3J2dx-152" value="" style="rounded=1;whiteSpace=wrap;html=1;fillColor=light-dark(#b4c7e7, #ededed);container=0;" parent="u8mfOglBeeZVYkt3J2dx-149" vertex="1">
          <mxGeometry x="8.16666666666672" y="28.699999999999978" width="53.66666666666667" height="16.799999999999997" as="geometry" />
        </mxCell>
        <mxCell id="u8mfOglBeeZVYkt3J2dx-153" value="" style="rounded=1;whiteSpace=wrap;html=1;fillColor=#D0CFCF;container=0;" parent="u8mfOglBeeZVYkt3J2dx-149" vertex="1">
          <mxGeometry x="8.16666666666672" y="47.59440000000002" width="23.333333333333336" height="16.799999999999997" as="geometry" />
        </mxCell>
        <mxCell id="u8mfOglBeeZVYkt3J2dx-154" value="" style="rounded=1;whiteSpace=wrap;html=1;fillColor=#D0CFCF;container=0;" parent="u8mfOglBeeZVYkt3J2dx-149" vertex="1">
          <mxGeometry x="38.50000000000008" y="47.59440000000002" width="23.333333333333336" height="16.799999999999997" as="geometry" />
        </mxCell>
        <mxCell id="u8mfOglBeeZVYkt3J2dx-155" value="" style="group" parent="1" vertex="1" connectable="0">
          <mxGeometry x="740" y="229.69" width="100" height="100.31" as="geometry" />
        </mxCell>
        <mxCell id="u8mfOglBeeZVYkt3J2dx-156" value="" style="rounded=0;whiteSpace=wrap;html=1;align=center;verticalAlign=top;container=0;dashed=1;dashPattern=8 8;" parent="u8mfOglBeeZVYkt3J2dx-155" vertex="1">
          <mxGeometry x="8.330000000000041" y="22.29111111111111" width="83.33" height="78.01888888888888" as="geometry" />
        </mxCell>
        <mxCell id="u8mfOglBeeZVYkt3J2dx-157" value="&lt;font style=&quot;color: rgb(0, 0, 255);&quot;&gt;&lt;b style=&quot;&quot;&gt;Obfuscation&lt;/b&gt;&lt;/font&gt;&lt;div&gt;&lt;font style=&quot;color: rgb(0, 0, 255);&quot;&gt;&lt;b style=&quot;&quot;&gt;Agent&lt;/b&gt;&lt;/font&gt;&lt;/div&gt;" style="text;html=1;align=center;verticalAlign=middle;whiteSpace=wrap;rounded=0;container=0;" parent="u8mfOglBeeZVYkt3J2dx-155" vertex="1">
          <mxGeometry y="10.31" width="100" height="60.186000000000014" as="geometry" />
        </mxCell>
        <mxCell id="u8mfOglBeeZVYkt3J2dx-158" value="" style="rounded=1;whiteSpace=wrap;html=1;fillColor=light-dark(#b4c7e7, #ededed);container=0;" parent="u8mfOglBeeZVYkt3J2dx-155" vertex="1">
          <mxGeometry x="11.67" y="60.19" width="76.67" height="15.2" as="geometry" />
        </mxCell>
        <mxCell id="u8mfOglBeeZVYkt3J2dx-159" value="" style="rounded=1;whiteSpace=wrap;html=1;fillColor=#D0CFCF;container=0;" parent="u8mfOglBeeZVYkt3J2dx-155" vertex="1">
          <mxGeometry x="11.67" y="80" width="33.33" height="12.28" as="geometry" />
        </mxCell>
        <mxCell id="u8mfOglBeeZVYkt3J2dx-160" value="" style="rounded=1;whiteSpace=wrap;html=1;fillColor=#D0CFCF;container=0;" parent="u8mfOglBeeZVYkt3J2dx-155" vertex="1">
          <mxGeometry x="55" y="80" width="33.33" height="12.28" as="geometry" />
        </mxCell>
        <mxCell id="u8mfOglBeeZVYkt3J2dx-161" value="" style="group" parent="1" vertex="1" connectable="0">
          <mxGeometry x="840" y="229.69" width="100" height="100.31" as="geometry" />
        </mxCell>
        <mxCell id="u8mfOglBeeZVYkt3J2dx-162" value="" style="rounded=0;whiteSpace=wrap;html=1;align=center;verticalAlign=top;container=0;dashed=1;dashPattern=8 8;" parent="u8mfOglBeeZVYkt3J2dx-161" vertex="1">
          <mxGeometry x="8.330000000000041" y="22.29111111111111" width="83.33" height="78.01888888888888" as="geometry" />
        </mxCell>
        <mxCell id="u8mfOglBeeZVYkt3J2dx-163" value="&lt;font style=&quot;color: rgb(0, 0, 255);&quot;&gt;&lt;b style=&quot;&quot;&gt;Obfuscation&lt;/b&gt;&lt;/font&gt;&lt;div&gt;&lt;font style=&quot;color: rgb(0, 0, 255);&quot;&gt;&lt;b style=&quot;&quot;&gt;Agent&lt;/b&gt;&lt;/font&gt;&lt;/div&gt;" style="text;html=1;align=center;verticalAlign=middle;whiteSpace=wrap;rounded=0;container=0;" parent="u8mfOglBeeZVYkt3J2dx-161" vertex="1">
          <mxGeometry x="-0.01" y="10.31" width="100" height="60.186000000000014" as="geometry" />
        </mxCell>
        <mxCell id="u8mfOglBeeZVYkt3J2dx-164" value="" style="rounded=1;whiteSpace=wrap;html=1;fillColor=light-dark(#b4c7e7, #ededed);container=0;" parent="u8mfOglBeeZVYkt3J2dx-161" vertex="1">
          <mxGeometry x="11.67" y="60.19" width="76.67" height="15.2" as="geometry" />
        </mxCell>
        <mxCell id="u8mfOglBeeZVYkt3J2dx-165" value="" style="rounded=1;whiteSpace=wrap;html=1;fillColor=#D0CFCF;container=0;" parent="u8mfOglBeeZVYkt3J2dx-161" vertex="1">
          <mxGeometry x="11.67" y="80" width="33.33" height="12.28" as="geometry" />
        </mxCell>
        <mxCell id="u8mfOglBeeZVYkt3J2dx-166" value="" style="rounded=1;whiteSpace=wrap;html=1;fillColor=#D0CFCF;container=0;" parent="u8mfOglBeeZVYkt3J2dx-161" vertex="1">
          <mxGeometry x="55" y="80" width="33.33" height="12.28" as="geometry" />
        </mxCell>
        <mxCell id="u8mfOglBeeZVYkt3J2dx-167" value="" style="endArrow=classic;html=1;rounded=0;exitX=1;exitY=0.5;exitDx=0;exitDy=0;entryX=0;entryY=0.5;entryDx=0;entryDy=0;" parent="1" source="u8mfOglBeeZVYkt3J2dx-132" target="u8mfOglBeeZVYkt3J2dx-138" edge="1">
          <mxGeometry width="50" height="50" relative="1" as="geometry">
            <mxPoint x="600" y="479" as="sourcePoint" />
            <mxPoint x="710" y="430" as="targetPoint" />
          </mxGeometry>
        </mxCell>
        <mxCell id="u8mfOglBeeZVYkt3J2dx-168" value="" style="endArrow=classic;html=1;rounded=0;entryX=0;entryY=0.5;entryDx=0;entryDy=0;exitX=1;exitY=0.5;exitDx=0;exitDy=0;" parent="1" source="u8mfOglBeeZVYkt3J2dx-138" target="u8mfOglBeeZVYkt3J2dx-150" edge="1">
          <mxGeometry width="50" height="50" relative="1" as="geometry">
            <mxPoint x="840" y="429" as="sourcePoint" />
            <mxPoint x="840" y="380" as="targetPoint" />
          </mxGeometry>
        </mxCell>
        <mxCell id="u8mfOglBeeZVYkt3J2dx-169" value="" style="endArrow=classic;html=1;rounded=0;entryX=0;entryY=0.5;entryDx=0;entryDy=0;exitX=1;exitY=0.5;exitDx=0;exitDy=0;" parent="1" source="u8mfOglBeeZVYkt3J2dx-132" target="u8mfOglBeeZVYkt3J2dx-144" edge="1">
          <mxGeometry width="50" height="50" relative="1" as="geometry">
            <mxPoint x="770" y="419" as="sourcePoint" />
            <mxPoint x="770" y="370" as="targetPoint" />
          </mxGeometry>
        </mxCell>
        <mxCell id="u8mfOglBeeZVYkt3J2dx-170" value="" style="endArrow=classic;html=1;rounded=0;entryX=0;entryY=0.5;entryDx=0;entryDy=0;exitX=1;exitY=0.5;exitDx=0;exitDy=0;dashed=1;dashPattern=8 8;" parent="1" source="u8mfOglBeeZVYkt3J2dx-156" target="u8mfOglBeeZVYkt3J2dx-162" edge="1">
          <mxGeometry width="50" height="50" relative="1" as="geometry">
            <mxPoint x="1100" y="469" as="sourcePoint" />
            <mxPoint x="1100" y="420" as="targetPoint" />
          </mxGeometry>
        </mxCell>
        <mxCell id="u8mfOglBeeZVYkt3J2dx-171" value="" style="endArrow=classic;html=1;rounded=0;entryX=0.5;entryY=1;entryDx=0;entryDy=0;exitX=0.5;exitY=0;exitDx=0;exitDy=0;dashed=1;dashPattern=8 8;" parent="1" source="u8mfOglBeeZVYkt3J2dx-162" target="u8mfOglBeeZVYkt3J2dx-150" edge="1">
          <mxGeometry width="50" height="50" relative="1" as="geometry">
            <mxPoint x="1170" y="449" as="sourcePoint" />
            <mxPoint x="1170" y="400" as="targetPoint" />
          </mxGeometry>
        </mxCell>
        <mxCell id="u8mfOglBeeZVYkt3J2dx-172" value="" style="endArrow=classic;html=1;rounded=0;entryX=0;entryY=0.5;entryDx=0;entryDy=0;exitX=1;exitY=0.5;exitDx=0;exitDy=0;dashed=1;dashPattern=8 8;" parent="1" source="u8mfOglBeeZVYkt3J2dx-126" target="u8mfOglBeeZVYkt3J2dx-156" edge="1">
          <mxGeometry width="50" height="50" relative="1" as="geometry">
            <mxPoint x="810" y="439" as="sourcePoint" />
            <mxPoint x="810" y="390" as="targetPoint" />
          </mxGeometry>
        </mxCell>
        <mxCell id="u8mfOglBeeZVYkt3J2dx-173" value="" style="endArrow=classic;html=1;rounded=0;entryX=0.5;entryY=0;entryDx=0;entryDy=0;exitX=0.5;exitY=1;exitDx=0;exitDy=0;dashed=1;dashPattern=8 8;" parent="1" source="u8mfOglBeeZVYkt3J2dx-132" target="u8mfOglBeeZVYkt3J2dx-126" edge="1">
          <mxGeometry width="50" height="50" relative="1" as="geometry">
            <mxPoint x="880" y="459" as="sourcePoint" />
            <mxPoint x="880" y="410" as="targetPoint" />
          </mxGeometry>
        </mxCell>
        <mxCell id="u8mfOglBeeZVYkt3J2dx-174" value="" style="endArrow=classic;html=1;rounded=0;exitX=1;exitY=0.5;exitDx=0;exitDy=0;strokeWidth=3;strokeColor=light-dark(#44546a, #ededed);" parent="1" source="u8mfOglBeeZVYkt3J2dx-117" edge="1">
          <mxGeometry width="50" height="50" relative="1" as="geometry">
            <mxPoint x="710" y="489" as="sourcePoint" />
            <mxPoint x="630" y="173" as="targetPoint" />
          </mxGeometry>
        </mxCell>
        <mxCell id="u8mfOglBeeZVYkt3J2dx-175" value="&lt;font style=&quot;font-size: 14px;&quot;&gt;real time traffic monitor&lt;/font&gt;" style="ellipse;shape=cloud;whiteSpace=wrap;html=1;" parent="1" vertex="1">
          <mxGeometry x="50" y="228.69" width="120" height="80" as="geometry" />
        </mxCell>
        <mxCell id="u8mfOglBeeZVYkt3J2dx-176" value="" style="endArrow=classic;html=1;rounded=0;entryX=0.5;entryY=1;entryDx=0;entryDy=0;" parent="1" source="u8mfOglBeeZVYkt3J2dx-175" target="u8mfOglBeeZVYkt3J2dx-113" edge="1">
          <mxGeometry width="50" height="50" relative="1" as="geometry">
            <mxPoint x="380" y="509" as="sourcePoint" />
            <mxPoint x="380" y="460" as="targetPoint" />
          </mxGeometry>
        </mxCell>
        <mxCell id="u8mfOglBeeZVYkt3J2dx-177" value="&lt;font style=&quot;color: rgb(255, 255, 255); font-size: 11px;&quot;&gt;&lt;b&gt;1&lt;/b&gt;&lt;/font&gt;" style="ellipse;whiteSpace=wrap;html=1;aspect=fixed;fillColor=#000000;" parent="1" vertex="1">
          <mxGeometry x="180" y="50" width="14" height="14" as="geometry" />
        </mxCell>
        <mxCell id="u8mfOglBeeZVYkt3J2dx-178" value="&lt;font style=&quot;color: rgb(255, 255, 255);&quot;&gt;&lt;b style=&quot;&quot;&gt;2&lt;/b&gt;&lt;/font&gt;" style="ellipse;whiteSpace=wrap;html=1;aspect=fixed;fillColor=#000000;align=center;" parent="1" vertex="1">
          <mxGeometry x="320" y="87" width="14" height="14" as="geometry" />
        </mxCell>
        <mxCell id="u8mfOglBeeZVYkt3J2dx-179" value="&lt;font style=&quot;color: rgb(255, 255, 255);&quot;&gt;&lt;b style=&quot;&quot;&gt;3&lt;/b&gt;&lt;/font&gt;" style="ellipse;whiteSpace=wrap;html=1;aspect=fixed;fillColor=#000000;align=center;" parent="1" vertex="1">
          <mxGeometry x="320" y="190" width="14" height="14" as="geometry" />
        </mxCell>
        <mxCell id="u8mfOglBeeZVYkt3J2dx-180" value="&lt;font style=&quot;color: rgb(255, 255, 255);&quot;&gt;&lt;b style=&quot;&quot;&gt;4&lt;/b&gt;&lt;/font&gt;" style="ellipse;whiteSpace=wrap;html=1;aspect=fixed;fillColor=#000000;align=center;" parent="1" vertex="1">
          <mxGeometry x="320" y="268" width="14" height="14" as="geometry" />
        </mxCell>
        <mxCell id="u8mfOglBeeZVYkt3J2dx-181" value="&lt;font style=&quot;color: rgb(255, 255, 255);&quot;&gt;&lt;b style=&quot;&quot;&gt;5&lt;/b&gt;&lt;/font&gt;" style="ellipse;whiteSpace=wrap;html=1;aspect=fixed;fillColor=#000000;align=center;" parent="1" vertex="1">
          <mxGeometry x="466.08" y="323.69" width="14" height="14" as="geometry" />
        </mxCell>
        <mxCell id="u8mfOglBeeZVYkt3J2dx-182" value="&lt;font style=&quot;color: rgb(255, 255, 255);&quot;&gt;&lt;b style=&quot;&quot;&gt;6&lt;/b&gt;&lt;/font&gt;" style="ellipse;whiteSpace=wrap;html=1;aspect=fixed;fillColor=#000000;align=center;" parent="1" vertex="1">
          <mxGeometry x="507" y="221" width="14" height="14" as="geometry" />
        </mxCell>
        <mxCell id="u8mfOglBeeZVYkt3J2dx-183" value="&lt;font style=&quot;color: rgb(255, 255, 255);&quot;&gt;&lt;b style=&quot;&quot;&gt;7&lt;/b&gt;&lt;/font&gt;" style="ellipse;whiteSpace=wrap;html=1;aspect=fixed;fillColor=#000000;align=center;" parent="1" vertex="1">
          <mxGeometry x="595" y="153" width="14" height="14" as="geometry" />
        </mxCell>
        <mxCell id="u8mfOglBeeZVYkt3J2dx-184" value="traffic character" style="text;html=1;align=center;verticalAlign=middle;whiteSpace=wrap;rounded=0;" parent="1" vertex="1">
          <mxGeometry x="115" y="194" width="60" height="30" as="geometry" />
        </mxCell>
        <mxCell id="u8mfOglBeeZVYkt3J2dx-185" value="traffic metrics" style="text;html=1;align=center;verticalAlign=middle;whiteSpace=wrap;rounded=0;" parent="1" vertex="1">
          <mxGeometry x="115" y="97" width="60" height="30" as="geometry" />
        </mxCell>
        <mxCell id="u8mfOglBeeZVYkt3J2dx-186" value="" style="rounded=1;whiteSpace=wrap;html=1;fillColor=light-dark(#ffffff, #ededed);container=0;dashed=1;dashPattern=8 8;labelBackgroundColor=light-dark(#ededed, #ededed);" parent="1" vertex="1">
          <mxGeometry x="960" y="166.78" width="30" height="23.22" as="geometry" />
        </mxCell>
        <mxCell id="u8mfOglBeeZVYkt3J2dx-187" value="&lt;b&gt;MeshGuard Component&lt;/b&gt;" style="text;html=1;align=center;verticalAlign=middle;whiteSpace=wrap;rounded=0;fontColor=#0000FF;" parent="1" vertex="1">
          <mxGeometry x="992.5" y="163.39" width="77.5" height="30" as="geometry" />
        </mxCell>
      </root>
    </mxGraphModel>
  </diagram>
</mxfile>
